<?xml version="1.0" encoding="UTF-8" standalone="no"?>
<svg xmlns="http://www.w3.org/2000/svg" xmlns:xlink="http://www.w3.org/1999/xlink">
  <symbol viewBox="0 0 48 48" class="aaLgbsSe-Bz112c" id="google-logo" xmlns="http://www.w3.org/2000/svg">
    <path fill="#EA4335"
      d="M24 9.5c3.54 0 6.71 1.22 9.21 3.6l6.85-6.85C35.9 2.38 30.47 0 24 0 14.62 0 6.51 5.38 2.56 13.22l7.98 6.19C12.43 13.72 17.74 9.5 24 9.5z" />
    <path fill="#4285F4"
      d="M46.98 24.55c0-1.57-.15-3.09-.38-4.55H24v9.02h12.94c-.58 2.96-2.26 5.48-4.78 7.18l7.73 6c4.51-4.18 7.09-10.36 7.09-17.65z" />
    <path fill="#FBBC05"
      d="M10.53 28.59c-.48-1.45-.76-2.99-.76-4.59s.27-3.14.76-4.59l-7.98-6.19C.92 16.46 0 20.12 0 24c0 3.88.92 7.54 2.56 10.78l7.97-6.19z" />
    <path fill="#34A853"
      d="M24 48c6.48 0 11.93-2.13 15.89-5.81l-7.73-6c-2.15 1.45-4.92 2.3-8.16 2.3-6.26 0-11.57-4.22-13.47-9.91l-7.98 6.19C6.51 42.62 14.62 48 24 48z" />
    <path fill="none" d="M0 0h48v48H0z" />
  </symbol>

  <symbol fill="none" xmlns="http://www.w3.org/2000/svg" viewBox="0 0 171 171" id="logo">
    <path
      d="M143.891 170.995H27.0904C12.123 170.995 0 158.872 0 143.904V27.0904C0 12.123 12.123 0 27.0904 0H143.904C158.872 0 170.995 12.123 170.995 27.0904V143.904C170.981 158.872 158.858 170.995 143.891 170.995Z"
      fill="#1E4ED8"></path>
    <path
      d="M44.082 47.1206V123.854C44.082 125.263 45.2198 126.401 46.6285 126.401H67.2579C68.6666 126.401 69.8044 125.263 69.8044 123.854V72.8295C69.8044 71.4208 70.9422 70.283 72.3509 70.283H124.541C125.949 70.283 127.087 69.1452 127.087 67.7365V47.1071C127.087 45.6984 125.949 44.5605 124.541 44.5605H46.6285C45.2334 44.5741 44.082 45.7255 44.082 47.1206Z"
      fill="white"></path>
    <path
      d="M99.6784 126.42H124.073C125.767 126.42 127.135 125.052 127.135 123.359V98.9636C127.135 97.2704 125.767 95.9023 124.073 95.9023H99.6784C97.9853 95.9023 96.6172 97.2704 96.6172 98.9636V123.359C96.6172 125.052 97.9853 126.42 99.6784 126.42Z"
      fill="white"></path>
  </symbol>



  <symbol fill="none" xmlns="http://www.w3.org/2000/svg" viewBox="0 0 223 63" id="logo-text">
    <path
      d="M0.413776 50V15.6929H5.26224C6.10933 15.6929 6.70006 15.849 7.03444 16.161C7.36882 16.4731 7.59174 17.0081 7.7032 17.7661L8.20476 21.9123C9.43081 19.7946 10.8686 18.1227 12.5182 16.8967C14.1678 15.6706 16.018 15.0576 18.0689 15.0576C19.7631 15.0576 21.1674 15.4477 22.282 16.2279L21.212 22.4139C21.1452 22.8151 21.0003 23.1049 20.7773 23.2833C20.5544 23.4393 20.2535 23.5173 19.8745 23.5173C19.5401 23.5173 19.0832 23.4393 18.5036 23.2833C17.924 23.1272 17.1549 23.0492 16.1964 23.0492C14.4799 23.0492 13.0086 23.5285 11.7826 24.487C10.5565 25.4233 9.51998 26.8054 8.67289 28.6333V50H0.413776ZM41.8901 15.1579C44.0524 15.1579 46.0364 15.5034 47.842 16.1945C49.6699 16.8855 51.2415 17.8998 52.5567 19.2373C53.8719 20.5525 54.8974 22.1798 55.633 24.1192C56.3686 26.0363 56.7364 28.2321 56.7364 30.7064C56.7364 31.3306 56.703 31.8545 56.6361 32.278C56.5915 32.6793 56.4912 33.0025 56.3352 33.2477C56.2014 33.4706 56.012 33.6378 55.7668 33.7493C55.5215 33.8384 55.2095 33.883 54.8305 33.883H33.631C33.8762 37.4051 34.8236 39.991 36.4732 41.6406C38.1228 43.2902 40.3074 44.115 43.027 44.115C44.3645 44.115 45.5125 43.9589 46.4711 43.6468C47.4519 43.3348 48.299 42.9892 49.0123 42.6103C49.748 42.2313 50.3833 41.8858 50.9183 41.5737C51.4756 41.2616 52.0106 41.1056 52.5233 41.1056C52.8577 41.1056 53.1475 41.1724 53.3927 41.3062C53.6379 41.4399 53.8497 41.6294 54.028 41.8746L56.4355 44.884C55.5215 45.954 54.4961 46.8569 53.3592 47.5925C52.2224 48.3058 51.0297 48.8854 49.7814 49.3312C48.5554 49.7548 47.2959 50.0557 46.0029 50.2341C44.7323 50.4124 43.4951 50.5016 42.2914 50.5016C39.9061 50.5016 37.6881 50.1115 35.6373 49.3312C33.5864 48.5287 31.8031 47.3584 30.2872 45.8203C28.7714 44.2599 27.5788 42.3428 26.7094 40.069C25.84 37.7729 25.4053 35.1202 25.4053 32.1108C25.4053 29.7702 25.7843 27.5744 26.5422 25.5236C27.3001 23.4505 28.3813 21.656 29.7857 20.1401C31.2123 18.602 32.9399 17.3871 34.9685 16.4954C37.0193 15.6038 39.3266 15.1579 41.8901 15.1579ZM42.0573 21.0764C39.6498 21.0764 37.7661 21.7563 36.4063 23.1161C35.0465 24.4759 34.1771 26.4041 33.7982 28.9008H49.3133C49.3133 27.8308 49.1684 26.8277 48.8786 25.8914C48.5888 24.9329 48.143 24.0969 47.5411 23.3836C46.9392 22.6703 46.1813 22.113 45.2673 21.7117C44.3534 21.2882 43.2833 21.0764 42.0573 21.0764ZM75.3064 15.091C76.7776 15.091 78.1597 15.2471 79.4527 15.5592C80.7456 15.849 81.927 16.2837 82.9971 16.8632H92.8612V19.9395C92.8612 20.4522 92.7274 20.8535 92.4599 21.1433C92.1924 21.4331 91.7354 21.6337 91.089 21.7451L88.0127 22.3136C88.2356 22.8932 88.4028 23.5062 88.5143 24.1527C88.648 24.7991 88.7149 25.479 88.7149 26.1924C88.7149 27.8865 88.3694 29.4247 87.6783 30.8068C87.0096 32.1666 86.0733 33.3257 84.8696 34.2843C83.6881 35.2428 82.2726 35.9896 80.623 36.5246C78.9957 37.0373 77.2235 37.2937 75.3064 37.2937C74.0135 37.2937 72.754 37.1711 71.5279 36.9259C70.4579 37.5723 69.9229 38.2968 69.9229 39.0993C69.9229 39.7904 70.235 40.3031 70.8592 40.6374C71.5056 40.9495 72.3416 41.1724 73.367 41.3062C74.4147 41.4399 75.5962 41.5291 76.9114 41.5737C78.2266 41.596 79.5753 41.6629 80.9574 41.7743C82.3394 41.8858 83.6881 42.0864 85.0033 42.3762C86.3185 42.6437 87.4889 43.0784 88.5143 43.6803C89.562 44.2822 90.3979 45.107 91.0221 46.1547C91.6686 47.1801 91.9918 48.5064 91.9918 50.1338C91.9918 51.6496 91.6128 53.1209 90.8549 54.5475C90.1193 55.9742 89.0381 57.2448 87.6115 58.3594C86.2071 59.474 84.4795 60.3657 82.4286 61.0344C80.3778 61.7255 78.0371 62.071 75.4067 62.071C72.7986 62.071 70.5359 61.8147 68.6188 61.3019C66.7017 60.8115 65.1079 60.1428 63.8373 59.2957C62.5889 58.4709 61.6527 57.5123 61.0285 56.42C60.4043 55.3277 60.0922 54.1909 60.0922 53.0094C60.0922 51.4044 60.5827 50.0557 61.5635 48.9634C62.5443 47.8711 63.9041 47.0018 65.6429 46.3553C64.7958 45.8872 64.1159 45.263 63.6032 44.4828C63.0905 43.7026 62.8341 42.6883 62.8341 41.4399C62.8341 40.9272 62.9233 40.4034 63.1016 39.8684C63.28 39.3111 63.5475 38.7649 63.9041 38.2299C64.2831 37.6949 64.7512 37.1934 65.3085 36.7252C65.8658 36.2348 66.5234 35.8001 67.2813 35.4212C65.5426 34.4849 64.1716 33.2366 63.1685 31.6761C62.1877 30.1157 61.6972 28.2878 61.6972 26.1924C61.6972 24.4982 62.0316 22.9712 62.7004 21.6114C63.3914 20.2293 64.3388 19.059 65.5426 18.1004C66.7686 17.1196 68.2064 16.3728 69.856 15.8601C71.5279 15.3474 73.3447 15.091 75.3064 15.091ZM84.368 51.5381C84.368 50.8694 84.1674 50.3232 83.7661 49.8997C83.3649 49.4761 82.8187 49.1529 82.1277 48.93C81.4366 48.6848 80.623 48.5064 79.6867 48.395C78.7728 48.2835 77.7919 48.2055 76.7442 48.1609C75.7188 48.0941 74.6488 48.0383 73.5342 47.9937C72.4419 47.9269 71.383 47.8265 70.3576 47.6928C69.4213 48.2055 68.6634 48.8185 68.0838 49.5319C67.5265 50.2229 67.2479 51.0254 67.2479 51.9394C67.2479 52.5413 67.3928 53.0986 67.6826 53.6113C67.9947 54.1463 68.4739 54.6033 69.1204 54.9822C69.7892 55.3612 70.6474 55.651 71.6951 55.8516C72.7428 56.0745 74.0246 56.186 75.5404 56.186C77.0786 56.186 78.4049 56.0634 79.5195 55.8182C80.6341 55.5952 81.5481 55.272 82.2614 54.8485C82.9971 54.4472 83.5321 53.9568 83.8664 53.3772C84.2008 52.8199 84.368 52.2069 84.368 51.5381ZM75.3064 32.0105C76.3318 32.0105 77.2235 31.8768 77.9814 31.6093C78.7393 31.3195 79.3635 30.9294 79.8539 30.4389C80.3666 29.9485 80.7456 29.3578 80.9908 28.6667C81.2583 27.9757 81.392 27.2178 81.392 26.393C81.392 24.6988 80.8793 23.3613 79.8539 22.3805C78.8508 21.3773 77.3349 20.8758 75.3064 20.8758C73.2778 20.8758 71.7508 21.3773 70.7254 22.3805C69.7223 23.3613 69.2207 24.6988 69.2207 26.393C69.2207 27.1955 69.3433 27.9423 69.5885 28.6333C69.856 29.3244 70.235 29.9262 70.7254 30.4389C71.2381 30.9294 71.8734 31.3195 72.6314 31.6093C73.4116 31.8768 74.3033 32.0105 75.3064 32.0105ZM105.606 15.6929V37.4943C105.606 39.5897 106.085 41.217 107.044 42.3762C108.025 43.5131 109.485 44.0815 111.424 44.0815C112.851 44.0815 114.189 43.7694 115.437 43.1453C116.685 42.4988 117.867 41.6183 118.981 40.5037V15.6929H127.24V50H122.191C121.121 50 120.419 49.4984 120.085 48.4953L119.516 45.7534C118.803 46.4667 118.067 47.1244 117.309 47.7262C116.551 48.3058 115.738 48.8074 114.868 49.2309C114.021 49.6322 113.096 49.9443 112.093 50.1672C111.112 50.4124 110.053 50.535 108.916 50.535C107.044 50.535 105.383 50.2229 103.934 49.5987C102.508 48.9523 101.304 48.0495 100.323 46.8903C99.3422 45.7311 98.5954 44.3602 98.0827 42.7775C97.5923 41.1724 97.3471 39.4114 97.3471 37.4943V15.6929H105.606ZM144.853 0.311578V50H136.594V0.311578H144.853ZM168.86 15.1579C171.423 15.1579 173.742 15.5703 175.815 16.3951C177.91 17.2199 179.694 18.3902 181.165 19.9061C182.636 21.4219 183.773 23.2721 184.576 25.4567C185.378 27.6413 185.779 30.0823 185.779 32.7796C185.779 35.4992 185.378 37.9513 184.576 40.1359C183.773 42.3205 182.636 44.1818 181.165 45.72C179.694 47.2581 177.91 48.4396 175.815 49.2644C173.742 50.0892 171.423 50.5016 168.86 50.5016C166.296 50.5016 163.967 50.0892 161.871 49.2644C159.776 48.4396 157.981 47.2581 156.488 45.72C155.017 44.1818 153.869 42.3205 153.044 40.1359C152.241 37.9513 151.84 35.4992 151.84 32.7796C151.84 30.0823 152.241 27.6413 153.044 25.4567C153.869 23.2721 155.017 21.4219 156.488 19.9061C157.981 18.3902 159.776 17.2199 161.871 16.3951C163.967 15.5703 166.296 15.1579 168.86 15.1579ZM168.86 44.1484C171.713 44.1484 173.82 43.1899 175.18 41.2728C176.562 39.3557 177.253 36.5469 177.253 32.8465C177.253 29.146 176.562 26.3261 175.18 24.3867C173.82 22.4473 171.713 21.4776 168.86 21.4776C165.962 21.4776 163.822 22.4585 162.44 24.4202C161.058 26.3595 160.367 29.1683 160.367 32.8465C160.367 36.5246 161.058 39.3334 162.44 41.2728C163.822 43.1899 165.962 44.1484 168.86 44.1484ZM192.223 50V15.6929H197.272C198.342 15.6929 199.045 16.1945 199.379 17.1976L199.948 19.9061C200.639 19.1927 201.363 18.5463 202.121 17.9667C202.901 17.3871 203.715 16.8855 204.562 16.462C205.431 16.0384 206.356 15.7152 207.337 15.4923C208.318 15.2694 209.388 15.1579 210.547 15.1579C212.42 15.1579 214.081 15.4811 215.529 16.1276C216.978 16.7518 218.182 17.6435 219.141 18.8026C220.122 19.9395 220.857 21.3105 221.348 22.9155C221.86 24.4982 222.117 26.2481 222.117 28.1652V50H213.858V28.1652C213.858 26.0698 213.367 24.4536 212.386 23.3167C211.428 22.1575 209.979 21.578 208.039 21.578C206.613 21.578 205.275 21.9012 204.027 22.5476C202.779 23.1941 201.597 24.0746 200.483 25.1892V50H192.223Z"
      fill="#1E4ED8"></path>
  </symbol>


  <symbol fill="none" viewBox="0 0 80 80" id="logo-favicon" xmlns="http://www.w3.org/2000/svg">
    <path
      d="M71.503 0H8.497A8.497 8.497 0 0 0 0 8.497v63.006A8.497 8.497 0 0 0 8.497 80h63.006A8.497 8.497 0 0 0 80 71.503V8.497A8.497 8.497 0 0 0 71.503 0z"
      fill="#5A50FA" />
    <path
      d="m64.693 31.434-5.026 13.174V30.16l-8.743-2.184-6.558 20.564V26.334l-8.748-2.185-6.558 26.765V22.512l-8.742-2.19-6.522 19.675 1.653.01 4.868-14.82v34.49l8.743-2.19 6.558-26.785v25.149l8.748-2.19 6.558-20.57v18.933l8.743-2.184 6.537-18.027-1.51-.38z"
      fill="#fff" />
  </symbol>
  <symbol fill="none" viewBox="0 0 357 80" id="logo-standard" xmlns="http://www.w3.org/2000/svg">
    <path
      d="M71.503 0H8.497A8.497 8.497 0 0 0 0 8.497v63.006A8.497 8.497 0 0 0 8.497 80h63.006A8.497 8.497 0 0 0 80 71.503V8.497A8.497 8.497 0 0 0 71.503 0z"
      fill="#5A50FA" />
    <path
      d="m65.326 31.214-5.155 13.512V29.907l-8.967-2.24-6.726 21.092V25.983l-8.972-2.24-6.727 27.45v-29.13l-8.966-2.245-6.689 20.179 1.695.01 4.994-15.201v35.376l8.966-2.246 6.727-27.473v25.794l8.972-2.246 6.726-21.097v19.418l8.967-2.24 6.705-18.49-1.55-.388z"
      fill="#fff" />
    <path
      d="M120.009 23.957h7.936c4.274 7.49 8.514 15.014 12.754 22.538h.078c4.24-7.524 8.471-15.049 12.745-22.538h7.936v32.077h-6.499V35.388h-.202c-3.862 6.867-7.734 13.779-11.641 20.646h-4.809c-3.906-6.867-7.769-13.779-11.641-20.646h-.166v20.646H120V23.957h.009zm65.801 0h7.402l14.847 32.077h-6.789c-1.358-2.794-2.715-5.597-4.117-8.391h-15.46c-1.358 2.794-2.716 5.597-4.108 8.391h-6.622l14.847-32.077zm8.558 17.764c-1.647-3.416-3.329-6.946-4.853-10.406h-.123a393.502 393.502 0 0 1-4.896 10.406h9.872zm23.186-17.764h14.514c3.662 0 13.201.902 13.201 10.319 0 6.044-4.275 8.838-9.005 9.793v.043c3.25 3.951 6.535 7.937 9.784 11.93h-7.2l-9.373-11.474h-5.509v11.475h-6.412V23.957zM231 39.137c3.451 0 7.568-.867 7.568-4.73 0-3.863-4.196-4.896-7.568-4.896h-7.034v9.626H231zm26.033-15.18h15.548c7.647 0 11.886 3.583 11.886 8.304 0 3.083-2.058 6.254-6.377 7.28v.078c4.652.78 7.735 3.206 7.735 7.647 0 6.666-6.955 8.76-12.876 8.76h-15.916v-32.07zm13.699 13.244c3.618 0 7.034-.823 7.034-3.784 0-2.96-3.617-3.828-7.112-3.828h-7.201v7.612h7.279zm.824 13.2c3.618 0 7.445-.823 7.445-3.95 0-3.127-3.906-3.985-7.445-3.985h-8.103v7.936h8.103zm25.613-26.444h6.411v26.401h17.607v5.676h-24.018V23.957zm33.925 0h24.92v5.632h-18.508v7.2h17.519v5.922h-17.519v7.647h18.999v5.676h-25.42V23.957h.009z"
      fill="currentColor" />
  </symbol>
  <symbol fill="none" viewBox="0 0 237 34" id="marble" xmlns="http://www.w3.org/2000/svg">
    <path
      d="M.009.957h7.936c4.274 7.49 8.514 15.014 12.754 22.538h.078c4.24-7.524 8.47-15.049 12.745-22.538h7.936v32.077h-6.5V12.388h-.2c-3.863 6.868-7.735 13.779-11.642 20.646h-4.809c-3.906-6.867-7.77-13.778-11.641-20.646H6.5v20.646H0V.957h.009ZM65.81.957h7.401L88.06 33.034H81.27c-1.358-2.794-2.715-5.597-4.117-8.391h-15.46c-1.358 2.794-2.716 5.597-4.108 8.391h-6.623L65.81.957Zm8.558 17.764c-1.647-3.416-3.329-6.946-4.853-10.406h-.123a394.56 394.56 0 0 1-4.896 10.406h9.872ZM97.554.957h14.514c3.662 0 13.201.902 13.201 10.319 0 6.044-4.275 8.838-9.005 9.793v.044c3.25 3.95 6.535 7.936 9.784 11.93h-7.2l-9.373-11.475h-5.509v11.475h-6.412V.957ZM111 16.137c3.451 0 7.568-.867 7.568-4.73 0-3.863-4.196-4.896-7.568-4.896h-7.034v9.626H111ZM137.033.957h15.548c7.647 0 11.886 3.583 11.886 8.304 0 3.083-2.058 6.254-6.377 7.28v.078c4.652.78 7.735 3.206 7.735 7.647 0 6.666-6.955 8.76-12.876 8.76h-15.916V.956Zm13.699 13.244c3.618 0 7.034-.823 7.034-3.784 0-2.96-3.617-3.828-7.112-3.828h-7.201v7.612h7.279Zm.824 13.2c3.618 0 7.445-.823 7.445-3.95 0-3.127-3.906-3.985-7.445-3.985h-8.103v7.936h8.103ZM177.169.957h6.411v26.401h17.607v5.676h-24.018V.957ZM211.094.957h24.92V6.59h-18.508v7.2h17.519v5.922h-17.519v7.647h18.999v5.676h-25.42V.957h.009Z"
      fill="#080525" />
  </symbol>
  <symbol viewBox="0 0 21 21" id="microsoft-logo" xmlns="http://www.w3.org/2000/svg">
    <path fill="#f25022" d="M1 1h9v9H1z" />
    <path fill="#00a4ef" d="M1 11h9v9H1z" />
    <path fill="#7fba00" d="M11 1h9v9h-9z" />
    <path fill="#ffb900" d="M11 11h9v9h-9z" />
    <script />
  </symbol>
</svg>
